# Blender v2.76 (sub 0) OBJ File: 'kljuc.blend'
# www.blender.org
mtllib kljuc.mtl
o Cube
v -0.085669 -0.020483 -0.385449
v -0.063085 -0.020483 -0.333193
v -0.106001 -0.020483 -0.374844
v -0.106001 -0.020483 -0.385449
v -0.085669 0.020483 -0.385449
v -0.063085 0.020483 -0.333193
v -0.106001 0.020483 -0.374844
v -0.106001 0.020483 -0.385449
v 0.124347 -0.020483 -0.385449
v 0.124347 -0.020483 -0.374844
v 0.124347 0.020483 -0.385449
v 0.124347 0.020483 -0.374844
v 0.104240 -0.020483 -0.385449
v 0.081866 -0.020483 -0.333193
v 0.081866 0.020483 -0.333193
v 0.104241 0.020483 -0.385449
v -0.042916 -0.020483 -0.202798
v -0.092546 -0.018873 -0.210485
v -0.042916 0.020483 -0.202798
v -0.092546 0.022092 -0.210485
v 0.105646 -0.020044 -0.208047
v 0.105646 0.020922 -0.208047
v 0.061315 0.020483 -0.202798
v 0.061315 -0.020483 -0.202798
v -0.063085 -0.020483 -0.241769
v -0.106002 -0.020483 -0.241769
v -0.106002 0.020483 -0.241769
v -0.063085 0.020483 -0.241769
v 0.061315 0.020483 -0.143947
v 0.061315 -0.020483 -0.143948
v -0.042916 0.020483 -0.143948
v -0.042916 -0.020483 -0.143948
v 0.081865 0.020483 -0.240890
v 0.124347 0.020483 -0.240890
v 0.081865 -0.020483 -0.240890
v 0.124347 -0.020483 -0.240890
v 0.042981 0.016528 -0.133347
v -0.024582 0.016528 -0.133347
v 0.042981 -0.016528 -0.133347
v -0.024582 -0.016528 -0.133348
v 0.042981 0.016528 -0.038654
v -0.024582 0.016528 -0.038654
v 0.042981 -0.016528 -0.038654
v -0.024582 -0.016528 -0.038654
v 0.042981 0.016527 0.144306
v -0.024582 0.016527 0.144306
v 0.042981 -0.016529 0.144306
v -0.024582 -0.016529 0.144306
v 0.042981 0.016527 0.176376
v -0.024582 0.016527 0.176376
v 0.042981 -0.016529 0.176376
v -0.024582 -0.016529 0.176376
v 0.042981 0.016527 0.211360
v -0.024582 0.016527 0.211360
v 0.042981 -0.016529 0.211360
v -0.024582 -0.016529 0.211360
v 0.042981 0.016527 0.248553
v -0.024582 0.016527 0.248553
v 0.042981 -0.016529 0.248553
v -0.024582 -0.016529 0.248553
v 0.042981 0.016527 0.340519
v -0.024582 0.016527 0.340519
v 0.042981 -0.016529 0.340519
v -0.024582 -0.016529 0.340519
v 0.118527 -0.016529 0.144306
v 0.118527 0.016527 0.144307
v 0.118527 -0.016529 0.176376
v 0.118527 0.016527 0.176376
v 0.091542 -0.016529 0.176376
v 0.062231 0.016527 0.176376
v 0.091542 -0.016529 0.211360
v 0.062231 0.016527 0.211360
v 0.122246 -0.016529 0.211360
v 0.122246 0.016527 0.211360
v 0.122246 -0.016529 0.248553
v 0.122246 0.016527 0.248553
v -0.090256 -0.016529 0.176376
v -0.090256 0.016527 0.176376
v -0.090256 -0.016529 0.211360
v -0.090256 0.016527 0.211360
v -0.024582 -0.016529 0.294536
v -0.024582 0.016527 0.294536
v 0.042981 -0.016529 0.294536
v 0.042981 0.016527 0.294536
v 0.168148 -0.016529 0.340519
v 0.138093 0.016527 0.340519
v 0.168148 -0.016529 0.294536
v 0.138093 0.016527 0.294536
v 0.042981 0.001612 0.355644
v -0.024582 0.001612 0.355644
v 0.042981 -0.016529 0.367482
v -0.024582 -0.016529 0.367482
v -0.130766 -0.016529 0.248553
v -0.094983 0.016527 0.248553
v -0.094983 0.016527 0.294536
v -0.130766 -0.016529 0.294536
v 0.009390 -0.020483 -0.371603
v 0.009286 0.027516 -0.423859
v 0.009286 -0.020483 -0.423859
v 0.009390 0.027516 -0.371603
v 0.009200 0.026960 -0.143947
v 0.009200 -0.014005 -0.143948
v 0.009390 -0.014005 -0.241329
v 0.009200 -0.014005 -0.202798
v 0.009390 0.026961 -0.241329
v 0.009200 0.026961 -0.202798
v 0.009200 0.023006 -0.133347
v 0.009200 -0.010050 -0.133347
v 0.009199 0.023005 -0.038654
v 0.009200 -0.010051 -0.038654
v 0.009199 0.023005 0.144306
v 0.009199 -0.010051 0.144306
v 0.009199 0.023005 0.176376
v 0.009199 -0.010051 0.176376
v 0.009199 0.023005 0.211360
v 0.009199 -0.010051 0.211360
v 0.009199 0.023005 0.248553
v 0.009199 -0.010051 0.248553
v 0.009199 0.023005 0.340519
v 0.009199 -0.010051 0.340519
v 0.009199 0.023005 0.294536
v 0.009199 -0.010051 0.294536
v 0.009199 0.008089 0.355644
v 0.009199 -0.010051 0.367482
v -0.016858 0.020483 -0.143947
v -0.016858 -0.020483 -0.143948
v -0.026848 -0.020483 -0.241549
v -0.016858 -0.020483 -0.202798
v -0.016858 0.020483 -0.202798
v -0.007691 0.016528 -0.133347
v -0.007691 -0.016528 -0.133347
v -0.007691 0.016528 -0.038654
v -0.007691 -0.016528 -0.038654
v -0.007691 0.016527 0.144306
v -0.007691 -0.016529 0.144306
v -0.007691 0.016527 0.176376
v -0.007691 -0.016529 0.176376
v -0.007691 0.016527 0.211360
v -0.007691 -0.016529 0.211360
v -0.007691 0.016527 0.248553
v -0.007691 -0.016529 0.248553
v -0.007691 0.016527 0.340519
v -0.007691 -0.016529 0.340519
v -0.007691 -0.016529 0.294536
v -0.007691 0.001612 0.355644
v -0.007691 -0.016529 0.367482
v -0.026848 0.020483 -0.241549
v -0.007691 0.016527 0.294536
v 0.045628 0.020483 -0.241109
v 0.026090 0.016527 0.294536
v 0.035257 0.020483 -0.143947
v 0.035257 -0.020483 -0.143948
v 0.045628 -0.020483 -0.241110
v 0.035257 -0.020483 -0.202798
v 0.035257 0.020483 -0.202798
v 0.026090 0.016528 -0.133347
v 0.026090 -0.016528 -0.133347
v 0.026090 0.016528 -0.038654
v 0.026090 -0.016528 -0.038654
v 0.026090 0.016527 0.144306
v 0.026090 -0.016529 0.144306
v 0.026090 0.016527 0.176376
v 0.026090 -0.016529 0.176376
v 0.026090 0.016527 0.211360
v 0.026090 -0.016529 0.211360
v 0.026090 0.016527 0.248553
v 0.026090 -0.016529 0.248553
v 0.026090 0.016527 0.340519
v 0.026090 -0.016529 0.340519
v 0.026090 -0.016529 0.294536
v 0.026090 0.001612 0.355644
v 0.026090 -0.016529 0.367482
vt 0.126027 0.015485
vt 0.155230 0.059262
vt 0.094884 0.020256
vt 0.095776 0.012128
vt 0.479404 0.401217
vt 0.479404 0.370619
vt 0.487537 0.370619
vt 0.519480 0.435201
vt 0.370885 0.083192
vt 0.408571 0.046837
vt 0.438485 0.050157
vt 0.437593 0.058284
vt 0.290571 0.175431
vt 0.329340 0.179733
vt 0.324388 0.224835
vt 0.285620 0.220533
vt 0.704159 0.728885
vt 0.589963 0.728885
vt 0.589963 0.720709
vt 0.704159 0.720709
vt 0.687669 0.686663
vt 0.801967 0.686663
vt 0.801967 0.717261
vt 0.687669 0.717261
vt 0.913030 0.219256
vt 0.913030 0.333859
vt 0.904897 0.333859
vt 0.904897 0.219256
vt 0.479404 0.687003
vt 0.519480 0.653332
vt 0.487537 0.717261
vt 0.479404 0.717261
vt 0.590269 0.717261
vt 0.590269 0.653332
vt 0.619482 0.622406
vt 0.615451 0.689117
vt 0.801967 0.400876
vt 0.687669 0.400876
vt 0.687669 0.370619
vt 0.801967 0.370619
vt 0.801967 0.543796
vt 0.668045 0.543796
vt 0.001714 0.726254
vt 0.134577 0.726239
vt 0.138276 0.835330
vt 0.024882 0.835342
vt 0.449863 0.544095
vt 0.489939 0.544252
vt 0.266289 0.041789
vt 0.270531 0.001724
vt 0.900325 0.783929
vt 0.900325 0.669927
vt 0.974618 0.664711
vt 0.974618 0.778714
vt 0.096037 0.842488
vt 0.096037 0.956491
vt 0.029685 0.954754
vt 0.029685 0.840751
vt 0.001715 0.952792
vt 0.001714 0.838789
vt 0.083688 0.122243
vt 0.147538 0.129328
vt 0.174266 0.162525
vt 0.101071 0.148435
vt 0.363119 0.153932
vt 0.426323 0.160945
vt 0.395735 0.183027
vt 0.589595 0.435201
vt 0.589595 0.370619
vt 0.613568 0.390863
vt 0.619483 0.465553
vt 0.589963 0.831492
vt 0.704159 0.831492
vt 0.698821 0.855613
vt 0.584625 0.855613
vt 0.213035 0.166827
vt 0.201433 0.135479
vt 0.373082 0.850059
vt 0.373082 0.735456
vt 0.443198 0.735456
vt 0.443198 0.850059
vt 0.619483 0.504767
vt 0.664616 0.465553
vt 0.664616 0.504767
vt 0.589764 0.489734
vt 0.159779 0.671732
vt 0.159779 0.617199
vt 0.274077 0.617199
vt 0.274077 0.671732
vt 0.449880 0.720709
vt 0.563273 0.720709
vt 0.551302 0.748291
vt 0.459803 0.748291
vt 0.901055 0.485221
vt 0.901055 0.370619
vt 0.946189 0.370619
vt 0.946189 0.485222
vt 0.802164 0.333858
vt 0.802164 0.219256
vt 0.443872 0.617199
vt 0.443872 0.732009
vt 0.373082 0.732009
vt 0.373082 0.617199
vt 0.369653 0.856011
vt 0.277506 0.856010
vt 0.277506 0.782997
vt 0.369653 0.782998
vt 0.900325 0.902187
vt 0.900325 0.787377
vt 0.945459 0.787377
vt 0.945459 0.902186
vt 0.563260 0.838348
vt 0.563256 0.877562
vt 0.551291 0.849965
vt 0.551294 0.824546
vt 0.449863 0.877562
vt 0.459792 0.849965
vt 0.449875 0.759922
vt 0.459800 0.773710
vt 0.802164 0.074738
vt 0.894145 0.074737
vt 0.894145 0.215808
vt 0.802164 0.215808
vt 0.271083 0.227132
vt 0.296213 0.229920
vt 0.288246 0.302493
vt 0.263116 0.299704
vt 0.802164 0.001724
vt 0.894145 0.001724
vt 0.668075 0.001801
vt 0.693357 0.001801
vt 0.693357 0.074814
vt 0.668075 0.074814
vt 0.668075 0.215883
vt 0.693358 0.215883
vt 0.693358 0.240610
vt 0.668076 0.240610
vt 0.277506 0.641926
vt 0.369653 0.641927
vt 0.272853 0.442712
vt 0.247723 0.439923
vt 0.799818 0.982777
vt 0.707588 0.982777
vt 0.707588 0.883947
vt 0.799818 0.883947
vt 0.277506 0.617199
vt 0.369653 0.617200
vt 0.270154 0.467290
vt 0.245024 0.464501
vt 0.989074 0.115409
vt 0.897574 0.115419
vt 0.897574 0.001734
vt 0.989074 0.001724
vt 0.676854 0.978343
vt 0.584625 0.978343
vt 0.584625 0.859061
vt 0.676854 0.859061
vt 0.267211 0.494101
vt 0.242081 0.491313
vt 0.342403 0.475307
vt 0.339459 0.502118
vt 0.693358 0.267584
vt 0.668076 0.267584
vt 0.972403 0.219256
vt 0.972403 0.311898
vt 0.937137 0.311898
vt 0.937137 0.219256
vt 0.693358 0.296261
vt 0.668076 0.296262
vt 0.948888 0.975942
vt 0.948888 0.883300
vt 0.977412 0.883300
vt 0.977412 0.975942
vt 0.264082 0.522606
vt 0.238952 0.519817
vt 0.231214 0.590299
vt 0.256344 0.593088
vt 0.254075 0.613752
vt 0.228945 0.610963
vt 0.235083 0.555058
vt 0.260213 0.557847
vt 0.897626 0.558977
vt 0.805396 0.558977
vt 0.805396 0.415846
vt 0.897626 0.370619
vt 0.668076 0.331716
vt 0.693358 0.331716
vt 0.693358 0.367171
vt 0.668076 0.367171
vt 0.998286 0.118867
vt 0.998286 0.211342
vt 0.973690 0.211342
vt 0.973690 0.118866
vt 0.385248 0.455184
vt 0.382550 0.479762
vt 0.542092 0.994694
vt 0.449863 0.994694
vt 0.449863 0.881009
vt 0.542092 0.881009
vt 0.592228 0.215883
vt 0.592228 0.240610
vt 0.479150 0.240610
vt 0.479150 0.215883
vt 0.273098 0.838778
vt 0.273097 0.934488
vt 0.246268 0.934488
vt 0.246268 0.838778
vt 0.970252 0.118866
vt 0.970262 0.210858
vt 0.897574 0.210858
vt 0.941438 0.118866
vt 0.592228 0.267584
vt 0.563414 0.267584
vt 0.563414 0.240610
vt 0.373082 0.946232
vt 0.373082 0.853507
vt 0.401896 0.853507
vt 0.445769 0.946232
vt 0.978142 0.370619
vt 0.978142 0.463094
vt 0.949618 0.463094
vt 0.949618 0.370619
vt 0.385139 0.507187
vt 0.382010 0.535691
vt 0.592228 0.296261
vt 0.473583 0.296261
vt 0.473583 0.267584
vt 0.277506 0.859468
vt 0.369006 0.859458
vt 0.369006 0.978740
vt 0.277506 0.978750
vt 0.900325 0.998276
vt 0.900325 0.905634
vt 0.927155 0.905634
vt 0.927155 0.998276
vt 0.169634 0.456136
vt 0.166691 0.482947
vt 0.068982 0.472105
vt 0.071926 0.445294
vt 0.791660 0.240610
vt 0.791660 0.267584
vt 0.900325 0.562434
vt 0.991825 0.562424
vt 0.991825 0.661254
vt 0.900325 0.661264
vt 0.984153 0.787377
vt 0.984153 0.879852
vt 0.948888 0.879852
vt 0.948888 0.787377
vt 0.707588 0.720709
vt 0.799818 0.720709
vt 0.799817 0.880500
vt 0.707588 0.826652
vt 0.134731 0.838790
vt 0.134731 0.934582
vt 0.099466 0.934582
vt 0.099466 0.838789
vt 0.446434 0.578510
vt 0.442565 0.613752
vt 0.805396 0.562434
vt 0.896896 0.562424
vt 0.896896 0.750782
vt 0.805396 0.705564
vt 0.592228 0.331716
vt 0.592228 0.367171
vt 0.449863 0.367171
vt 0.449863 0.331716
vt 0.166991 0.890411
vt 0.141708 0.890412
vt 0.141708 0.838782
vt 0.166991 0.838781
vt 0.700962 0.859061
vt 0.700962 0.951536
vt 0.689362 0.909810
vt 0.680283 0.859061
vt 0.166987 0.933383
vt 0.141705 0.933384
vt 0.916459 0.311898
vt 0.925537 0.261057
vt 0.545521 0.975929
vt 0.545521 0.881009
vt 0.580787 0.881009
vt 0.580787 0.975928
vt 0.163562 0.511451
vt 0.159693 0.546693
vt 0.001714 0.529163
vt 0.005583 0.493922
vt 0.798735 0.296262
vt 0.798735 0.331716
vt 0.896896 0.914021
vt 0.805396 0.914031
vt 0.805396 0.808088
vt 0.896896 0.754230
vt 0.024882 0.617211
vt 0.138276 0.617199
vt 0.217553 0.933380
vt 0.192273 0.951409
vt 0.192276 0.908437
vt 0.217556 0.890409
vt 0.192276 0.856807
vt 0.217556 0.838779
vt 0.188692 0.514240
vt 0.213811 0.517009
vt 0.209942 0.552251
vt 0.184823 0.549481
vt 0.617510 0.296261
vt 0.642806 0.296184
vt 0.642806 0.331639
vt 0.617511 0.331716
vt 0.642807 0.367093
vt 0.617511 0.367171
vt 0.206073 0.587492
vt 0.180954 0.584722
vt 0.203805 0.608156
vt 0.178685 0.605386
vt 0.191821 0.485735
vt 0.216940 0.488505
vt 0.617510 0.267584
vt 0.642806 0.267506
vt 0.617510 0.240610
vt 0.642806 0.240532
vt 0.194764 0.458924
vt 0.219884 0.461694
vt 0.197463 0.434346
vt 0.222582 0.437116
vt 0.212856 0.294127
vt 0.237976 0.296897
vt 0.617510 0.074814
vt 0.642806 0.074736
vt 0.642806 0.215806
vt 0.617510 0.215883
vt 0.617509 0.001801
vt 0.642805 0.001724
vt 0.220823 0.221555
vt 0.245943 0.224324
vt 0.208083 0.211929
vt 0.246841 0.216212
vt 0.563269 0.759922
vt 0.581196 0.799135
vt 0.569228 0.799128
vt 0.551300 0.773710
vt 0.159779 0.780797
vt 0.141705 0.726265
vt 0.256003 0.726265
vt 0.274077 0.780797
vt 0.590100 0.598799
vt 0.589855 0.544253
vt 0.619405 0.543967
vt 0.619483 0.583193
vt 0.664539 0.543966
vt 0.664616 0.583193
vt 0.251793 0.171110
vt 0.255318 0.141611
vt 0.309224 0.147781
vt 0.169315 0.207627
vt 0.159779 0.835330
vt 0.274077 0.835330
vt 0.449867 0.838348
vt 0.459794 0.824546
vt 0.195693 0.218766
vt 0.187726 0.291339
vt 0.172333 0.431558
vt 0.155824 0.581934
vt 0.153555 0.602598
vt 0.664616 0.622406
vt 0.592227 0.001801
vt 0.592227 0.074814
vt 0.242839 0.890408
vt 0.242839 0.838778
vt 0.242835 0.933379
vn 0.000000 -1.000000 0.000000
vn 0.000000 1.000000 0.000000
vn -1.000000 -0.000000 -0.000000
vn 0.000000 0.000000 -1.000000
vn 1.000000 -0.000000 0.000000
vn -0.005600 0.999900 -0.009300
vn 0.375000 0.000000 -0.927000
vn -0.468300 -0.000000 0.883600
vn 0.076300 0.997000 0.016300
vn -0.153100 -0.000000 0.988200
vn 0.117600 -0.000000 0.993100
vn 0.869000 -0.000000 0.494800
vn -0.020100 -0.999300 0.032500
vn 0.005600 -0.999900 0.009300
vn 0.020100 0.999300 -0.032500
vn -0.918600 -0.000000 0.395100
vn 0.006100 0.000000 -1.000000
vn 0.500500 -0.000000 0.865700
vn -0.000000 0.936900 0.349600
vn -0.500500 -0.000000 0.865700
vn 0.000000 -0.936900 0.349600
vn 0.000000 -0.000000 1.000000
vn 0.748200 0.663500 0.000000
vn 0.739900 0.672700 0.000000
vn 0.000000 0.546500 0.837500
vn 0.000000 0.712000 0.702200
vn -0.678600 0.734500 0.000000
vn -0.076200 0.997000 0.016500
vn 0.468300 -0.000000 0.883600
vn -0.375000 0.000000 -0.927000
vn 0.263400 0.686900 0.677400
vn 0.205100 0.534900 0.819700
vn 0.358100 -0.933700 -0.000000
vn 0.358100 0.933700 0.000000
vn 0.281300 -0.932600 0.226300
vn 0.260200 0.862400 0.434200
vn 0.203400 0.978700 0.028000
vn 0.241300 0.970500 0.000000
vn -0.203400 -0.978700 -0.028000
vn 0.241300 -0.970500 -0.000000
vn -0.263400 0.686900 0.677400
vn -0.205100 0.534900 0.819700
vn -0.358100 0.933700 0.000000
vn -0.260200 0.862400 0.434200
vn -0.203600 0.978700 0.025800
vn -0.241300 0.970500 0.000000
vn 0.203600 -0.978700 -0.025800
vn -0.358100 -0.933700 -0.000000
vn -0.281300 -0.932600 0.226300
vn -0.241300 -0.970500 -0.000000
usemtl Material.001
s off
f 1/1/1 2/2/1 3/3/1 4/4/1
f 5/5/2 8/6/2 7/7/2 6/8/2
f 14/9/1 13/10/1 9/11/1 10/12/1
f 154/13/1 24/14/1 30/15/1 152/16/1
f 3/17/3 7/18/3 8/19/3 4/20/3
f 5/21/4 1/22/4 4/23/4 8/24/4
f 9/25/5 11/26/5 12/27/5 10/28/5
f 16/29/2 15/30/2 12/31/2 11/32/2
f 34/33/6 33/34/6 23/35/6 22/36/6
f 13/37/4 16/38/4 11/39/4 9/40/4
f 99/41/7 98/42/7 16/38/7 13/37/7
f 100/43/8 97/44/8 14/45/8 15/46/8
f 98/47/9 100/48/9 15/30/9 16/29/9
f 97/49/1 99/50/1 13/10/1 14/9/1
f 17/51/10 19/52/10 20/53/10 18/54/10
f 23/55/11 24/56/11 21/57/11 22/58/11
f 36/59/12 34/60/12 22/58/12 21/57/12
f 26/61/13 25/62/13 17/63/13 18/64/13
f 35/65/14 36/66/14 21/67/14 24/14/14
f 28/68/15 27/69/15 20/70/15 19/71/15
f 27/72/16 26/73/16 18/74/16 20/75/16
f 128/76/1 17/63/1 25/62/1 127/77/1
f 2/78/5 6/79/5 28/80/5 25/81/5
f 7/18/3 3/17/3 26/73/3 27/72/3
f 6/8/2 7/7/2 27/69/2 28/68/2
f 3/3/1 2/2/1 25/62/1 26/61/1
f 129/82/2 19/71/2 31/83/2 125/84/2
f 147/85/2 28/68/2 19/71/2 129/82/2
f 149/86/17 33/87/17 35/88/17 153/89/17
f 30/90/18 29/91/18 37/92/18 39/93/18
f 24/94/5 23/95/5 29/96/5 30/97/5
f 14/9/1 10/12/1 36/66/1 35/65/1
f 10/28/5 12/27/5 34/98/5 36/99/5
f 12/31/2 15/30/2 33/34/2 34/33/2
f 15/100/3 14/101/3 35/102/3 33/103/3
f 38/104/3 40/105/3 44/106/3 42/107/3
f 19/108/3 17/109/3 32/110/3 31/111/3
f 125/112/19 31/113/19 38/114/19 130/115/19
f 31/113/20 32/116/20 40/117/20 38/114/20
f 152/118/21 30/90/21 39/93/21 157/119/21
f 43/120/5 41/121/5 45/122/5 47/123/5
f 157/124/1 39/125/1 43/126/1 159/127/1
f 39/128/5 37/129/5 41/121/5 43/120/5
f 130/130/2 38/131/2 42/132/2 132/133/2
f 134/134/2 46/135/2 50/136/2 136/137/2
f 132/133/2 42/132/2 46/135/2 134/134/2
f 42/107/3 44/106/3 48/138/3 46/139/3
f 159/127/1 43/126/1 47/140/1 161/141/1
f 50/142/4 52/143/4 77/144/4 78/145/4
f 46/139/3 48/138/3 52/146/3 50/147/3
f 161/141/1 47/140/1 51/148/1 163/149/1
f 49/150/22 51/151/22 67/152/22 68/153/22
f 55/154/4 53/155/4 74/156/4 73/157/4
f 163/149/1 51/148/1 55/158/1 165/159/1
f 55/158/1 51/148/1 69/160/1 71/161/1
f 136/137/2 50/136/2 54/162/2 138/163/2
f 82/164/3 81/165/3 64/166/3 62/167/3
f 138/163/2 54/162/2 58/168/2 140/169/2
f 54/170/3 56/171/3 60/172/3 58/173/3
f 165/159/1 55/158/1 59/174/1 167/175/1
f 169/176/1 63/177/1 91/178/1 172/179/1
f 170/180/1 83/181/1 63/177/1 169/176/1
f 83/182/4 84/183/4 88/184/4 87/185/4
f 148/186/2 82/187/2 62/188/2 142/189/2
f 65/190/5 66/191/5 68/192/5 67/193/5
f 51/148/1 47/140/1 65/194/1 67/195/1
f 47/196/4 45/197/4 66/198/4 65/199/4
f 45/200/2 49/201/2 68/202/2 66/203/2
f 69/204/23 70/205/23 72/206/23 71/207/23
f 53/208/22 55/209/22 71/210/22 72/211/22
f 49/201/2 53/212/2 72/213/2 70/214/2
f 51/215/4 49/216/4 70/217/4 69/218/4
f 73/219/5 74/220/5 76/221/5 75/222/5
f 59/174/1 55/158/1 73/223/1 75/224/1
f 53/212/2 57/225/2 76/226/2 74/227/2
f 57/228/22 59/229/22 75/230/22 76/231/22
f 78/232/3 77/233/3 79/234/3 80/235/3
f 52/236/1 56/237/1 79/238/1 77/239/1
f 54/162/2 50/136/2 78/240/2 80/241/2
f 56/242/22 54/243/22 80/244/22 79/245/22
f 140/169/2 58/168/2 82/187/2 148/186/2
f 59/246/5 57/247/5 84/248/5 83/249/5
f 167/175/1 59/174/1 83/181/1 170/180/1
f 58/250/4 60/251/4 93/252/4 94/253/4
f 87/254/24 88/255/24 86/256/24 85/257/24
f 63/177/1 83/181/1 87/258/1 85/259/1
f 61/260/22 63/261/22 85/262/22 86/263/22
f 84/264/2 61/265/2 86/266/2 88/267/2
f 145/268/25 90/269/25 92/270/25 146/271/25
f 63/272/5 61/273/5 89/274/5 91/275/5
f 142/276/26 62/277/26 90/269/26 145/268/26
f 62/167/3 64/166/3 92/278/3 90/279/3
f 94/280/27 93/281/27 96/282/27 95/283/27
f 60/284/1 81/285/1 96/286/1 93/287/1
f 82/187/2 58/168/2 94/288/2 95/289/2
f 81/290/22 82/291/22 95/292/22 96/293/22
f 2/2/1 1/1/1 99/50/1 97/49/1
f 5/5/28 6/8/28 100/48/28 98/47/28
f 6/294/29 2/295/29 97/44/29 100/43/29
f 1/22/30 5/21/30 98/42/30 99/41/30
f 168/296/31 119/297/31 123/298/31 171/299/31
f 171/299/32 123/298/32 124/300/32 172/301/32
f 141/302/33 118/303/33 122/304/33 144/305/33
f 166/306/34 117/307/34 121/308/34 150/309/34
f 150/309/34 121/308/34 119/310/34 168/311/34
f 144/305/33 122/304/33 120/312/33 143/313/33
f 143/313/33 120/312/33 124/314/33 146/315/33
f 139/316/33 116/317/33 118/303/33 141/302/33
f 164/318/34 115/319/34 117/307/34 166/306/34
f 162/320/34 113/321/34 115/319/34 164/318/34
f 137/322/33 114/323/33 116/317/33 139/316/33
f 135/324/33 112/325/33 114/323/33 137/322/33
f 133/326/33 110/327/33 112/325/33 135/324/33
f 158/328/34 109/329/34 111/330/34 160/331/34
f 160/331/34 111/330/34 113/321/34 162/320/34
f 156/332/34 107/333/34 109/329/34 158/328/34
f 131/334/33 108/335/33 110/327/33 133/326/33
f 126/336/35 102/337/35 108/335/35 131/334/35
f 151/338/36 101/339/36 107/340/36 156/341/36
f 147/342/17 105/343/17 103/344/17 127/345/17
f 149/346/37 105/347/37 106/348/37 155/349/37
f 155/349/38 106/348/38 101/350/38 151/351/38
f 154/13/39 104/352/39 103/353/39 153/354/39
f 128/76/40 104/352/40 102/337/40 126/336/40
f 17/63/1 128/76/1 126/336/1 32/355/1
f 28/356/17 147/342/17 127/345/17 25/357/17
f 32/116/21 126/358/21 131/359/21 40/117/21
f 40/360/1 131/334/1 133/326/1 44/361/1
f 44/361/1 133/326/1 135/324/1 48/362/1
f 48/362/1 135/324/1 137/322/1 52/236/1
f 52/236/1 137/322/1 139/316/1 56/237/1
f 56/237/1 139/316/1 141/302/1 60/284/1
f 64/363/1 143/313/1 146/315/1 92/364/1
f 81/285/1 144/305/1 143/313/1 64/363/1
f 60/284/1 141/302/1 144/305/1 81/285/1
f 119/297/41 142/276/41 145/268/41 123/298/41
f 123/298/42 145/268/42 146/271/42 124/300/42
f 117/307/43 140/169/43 148/186/43 121/308/43
f 121/308/43 148/186/43 142/189/43 119/310/43
f 115/319/43 138/163/43 140/169/43 117/307/43
f 113/321/43 136/137/43 138/163/43 115/319/43
f 109/329/43 132/133/43 134/134/43 111/330/43
f 111/330/43 134/134/43 136/137/43 113/321/43
f 107/333/43 130/130/43 132/133/43 109/329/43
f 101/339/44 125/112/44 130/115/44 107/340/44
f 105/347/45 147/85/45 129/82/45 106/348/45
f 106/348/46 129/82/46 125/84/46 101/350/46
f 104/352/47 128/76/47 127/77/47 103/353/47
f 24/14/1 154/13/1 153/354/1 35/65/1
f 23/35/2 155/349/2 151/351/2 29/365/2
f 33/34/2 149/346/2 155/349/2 23/35/2
f 29/91/19 151/338/19 156/341/19 37/92/19
f 37/366/2 156/332/2 158/328/2 41/367/2
f 45/200/2 160/331/2 162/320/2 49/201/2
f 41/367/2 158/328/2 160/331/2 45/200/2
f 49/201/2 162/320/2 164/318/2 53/212/2
f 53/212/2 164/318/2 166/306/2 57/225/2
f 84/264/2 150/309/2 168/311/2 61/265/2
f 57/225/2 166/306/2 150/309/2 84/264/2
f 89/368/25 171/299/25 172/301/25 91/369/25
f 61/370/26 168/296/26 171/299/26 89/368/26
f 118/303/48 167/175/48 170/180/48 122/304/48
f 122/304/48 170/180/48 169/176/48 120/312/48
f 120/312/48 169/176/48 172/179/48 124/314/48
f 116/317/48 165/159/48 167/175/48 118/303/48
f 114/323/48 163/149/48 165/159/48 116/317/48
f 112/325/48 161/141/48 163/149/48 114/323/48
f 110/327/48 159/127/48 161/141/48 112/325/48
f 108/335/48 157/124/48 159/127/48 110/327/48
f 102/337/49 152/16/49 157/124/49 108/335/49
f 105/343/17 149/86/17 153/89/17 103/344/17
f 104/352/50 154/13/50 152/16/50 102/337/50
